# xmcd
#
# Track frame offsets: 
#        150
#        14774
#        31923
#        48200
#        64270
#        77595
#        98901
#        112424
#        134259
#        148306
#
# Disc length: 2181 seconds
#
# Revision: 1
# Processed by: cddbd v1.5.2PL0 Copyright (c) Steve Scherf et al.
# Submitted via: ExactAudioCopy v0.99pb5
#
DISCID=9008830a
DTITLE=Sera Cahoone - Sera Cahoone
DYEAR=2006
DGENRE=Folk/Rock
TTITLE0=Nowhere To Be Found
TTITLE1=Last Time
TTITLE2=Couch Song
TTITLE3=Take Me Home
TTITLE4=You're Lookin' Tired
TTITLE5=I've Been Wrong
TTITLE6=I'm On Your Side
TTITLE7=Long Highway
TTITLE8=What A Shame
TTITLE9=So Long
EXTD=
EXTT0=
EXTT1=
EXTT2=
EXTT3=
EXTT4=
EXTT5=
EXTT6=
EXTT7=
EXTT8=
EXTT9=
PLAYORDER=
